# xmcd CD database file
#
# Track frame offsets:
#	150
#	15371
#	30143
#	46359
#	60805
#	85821
#	112871
#	161842
#	183495
#	197339
#	215208
#	242078
#	290948
#	304510
#	316198
#	327801
#
# Disc length: 4558 seconds
#
# Revision: 0
# Processed by: cddbd v1.5.2PL0 Copyright (c) Steve Scherf et al.
# Submitted via: CDex 1.70beta1
#
DISCID=ca11cc10
DTITLE=Ken Colyer - Lonesome Road: 1957-1958 CD 1
DYEAR=1900
DGENRE=Jazz
TTITLE0=Heliotrope Bouquet
TTITLE1=Fig Leaf Rag
TTITLE2=Kinklets
TTITLE3=Sensation
TTITLE4=Gatemouth
TTITLE5=Bourbon Street Parade
TTITLE6=Dauphine Street Blues
TTITLE7=Bill Bailey
TTITLE8=Ham 'N' Eggs
TTITLE9=Nobody Knows The Trouble I've Seen
TTITLE10=Down By The Riverside
TTITLE11=Bye and Bye/When The Saints Go Marching In
TTITLE12=Midnight Hour Blues
TTITLE13=This Train
TTITLE14=Go Down Sunshine
TTITLE15=Ella Speed
EXTD=
EXTT0=
EXTT1=
EXTT2=
EXTT3=
EXTT4=
EXTT5=
EXTT6=
EXTT7=
EXTT8=
EXTT9=
EXTT10=
EXTT11=
EXTT12=
EXTT13=
EXTT14=
EXTT15=
PLAYORDER=
